<?xml version="1.0" standalone="no"?>
<!DOCTYPE svg PUBLIC "-//W3C//DTD SVG 20010904//EN"
 "http://www.w3.org/TR/2001/REC-SVG-20010904/DTD/svg10.dtd">
<svg version="1.0" xmlns="http://www.w3.org/2000/svg"
 width="468.000000pt" height="499.000000pt" viewBox="0 0 468.000000 499.000000"
 preserveAspectRatio="xMidYMid meet">

<g transform="translate(0.000000,499.000000) scale(0.100000,-0.100000)"
fill="#000000" stroke="none">
<path d="M1167 4953 c645 -2 1701 -2 2345 0 645 1 118 2 -1172 2 -1290 0
-1817 -1 -1173 -2z"/>
<path d="M2135 4774 c-425 -35 -865 -213 -1205 -487 -157 -128 -339 -326 -457
-503 -113 -166 -234 -429 -285 -614 -5 -19 -13 -51 -19 -70 -52 -190 -86 -487
-75 -655 15 -236 42 -380 110 -605 46 -150 147 -358 257 -526 44 -66 79 -127
79 -135 0 -8 -16 -20 -35 -27 -19 -6 -51 -18 -70 -24 -62 -23 -54 -28 140 -93
127 -42 144 -51 186 -93 45 -46 46 -48 42 -98 l-5 -51 53 -16 c30 -8 72 -20
95 -26 22 -6 91 -42 153 -81 408 -256 788 -370 1230 -370 263 0 526 48 776
142 114 42 320 144 409 202 82 54 127 74 199 90 226 53 228 54 221 89 -2 12
-8 44 -13 70 -7 37 -5 51 5 62 13 13 108 45 133 45 6 0 19 4 29 9 9 5 49 19
87 31 39 12 79 26 90 30 11 5 30 12 43 15 38 11 25 25 -55 61 -122 56 -123 57
-123 68 0 6 32 61 71 121 39 61 97 164 129 230 57 119 141 350 160 442 72 351
79 644 23 938 -28 147 -33 170 -59 250 -133 421 -379 797 -687 1052 -45 37
-84 70 -87 74 -3 3 -60 43 -128 87 -189 125 -426 237 -597 282 -16 5 -57 16
-90 25 -138 37 -289 56 -485 59 -107 2 -217 2 -245 0z m139 -102 c3 -5 6 -63
7 -130 0 -67 5 -125 10 -127 9 -6 10 -1 29 110 19 117 21 125 37 140 16 17
128 21 152 6 9 -6 18 -37 23 -78 14 -115 25 -208 24 -210 -1 0 -23 -3 -51 -5
-48 -3 -50 -2 -55 27 -7 40 -35 44 -47 8 l-10 -28 -106 -2 -106 -3 -7 60 c-9
78 -30 76 -26 -2 3 -51 2 -56 -20 -61 -39 -11 -76 -8 -81 7 -3 7 -8 35 -11 62
-4 27 -12 82 -18 122 -6 43 -7 77 -2 82 5 5 33 12 62 16 l52 7 0 -52 c0 -45 2
-51 21 -51 18 0 20 4 13 46 -5 34 -3 48 7 55 18 11 96 12 103 1z m560 -53 c84
-25 87 -27 79 -58 -5 -21 -10 -22 -44 -17 -37 6 -39 5 -39 -19 0 -18 7 -28 26
-35 18 -7 24 -15 20 -26 -3 -9 -6 -20 -6 -25 0 -5 -10 -7 -23 -4 -26 7 -53
-16 -44 -38 3 -8 19 -17 36 -20 22 -5 31 -12 31 -26 0 -42 -27 -43 -169 -4
-10 2 -12 17 -8 61 8 82 28 194 38 215 12 22 17 21 103 -4z m-886 -9 c26 -25
29 -75 6 -88 -19 -10 -11 -32 11 -32 18 0 27 -35 23 -86 -3 -42 -3 -42 -133
-80 -33 -9 -65 -19 -72 -21 -7 -3 -19 23 -32 69 -12 40 -25 87 -31 103 -5 17
-12 48 -16 71 l-6 40 64 18 c34 10 68 20 73 21 36 11 93 3 113 -15z m-278
-122 c32 -110 42 -141 51 -166 12 -31 6 -39 -42 -53 -27 -9 -43 -9 -50 -2 -11
11 -89 230 -89 250 0 15 54 41 87 42 19 1 25 -9 43 -71z m1483 22 l58 -24 -6
-66 -6 -65 39 43 c22 23 44 42 50 42 13 0 100 -49 108 -61 3 -5 -11 -42 -32
-82 -21 -40 -49 -93 -62 -119 -26 -53 -30 -55 -72 -33 -34 18 -36 29 -14 85
23 58 11 60 -27 6 -34 -47 -43 -52 -68 -37 -14 9 -12 52 5 124 4 17 2 27 -5
27 -6 0 -11 -6 -11 -13 0 -10 -36 -94 -44 -104 -2 -2 -21 4 -43 13 -47 19 -47
9 6 179 28 89 45 120 61 112 3 -1 32 -13 63 -27z m-1651 -56 c24 -55 78 -204
78 -215 0 -5 -18 -18 -41 -29 -42 -22 -69 -16 -69 16 0 24 -23 64 -37 64 -17
0 -17 -14 1 -48 30 -60 29 -70 -6 -92 -18 -11 -40 -20 -48 -20 -16 0 -130 212
-130 241 0 15 66 59 89 59 7 0 18 -15 26 -34 29 -68 56 -60 30 9 -10 25 -16
47 -14 49 9 8 84 45 92 46 4 0 17 -21 29 -46z m-272 -128 c6 -16 2 -26 -18
-42 l-25 -20 52 -88 c28 -47 51 -93 51 -100 0 -14 -58 -56 -78 -56 -5 0 -34
38 -64 85 -29 46 -57 84 -62 85 -5 0 -17 -7 -27 -16 -21 -19 -46 -13 -56 12
-4 12 5 26 32 48 76 61 170 124 178 119 5 -3 12 -15 17 -27z m1730 9 c8 -10 8
-19 0 -34 -12 -24 -18 -25 -54 -12 -19 8 -23 15 -19 33 4 13 11 26 16 29 13 9
44 0 57 -16z m-524 -25 c290 -23 510 -90 769 -235 173 -96 399 -296 521 -461
104 -140 155 -232 239 -429 30 -70 64 -186 85 -290 6 -33 16 -79 21 -102 14
-66 11 -437 -5 -523 -39 -211 -69 -308 -142 -468 -13 -29 -24 -55 -24 -57 0
-2 -22 -42 -50 -89 -59 -101 -101 -140 -139 -131 -15 3 -72 -5 -127 -18 -54
-14 -125 -30 -156 -37 -68 -15 -72 -24 -63 -114 l7 -64 -53 -11 c-30 -7 -83
-16 -119 -21 -36 -5 -91 -13 -123 -19 -96 -17 -398 -40 -433 -33 -77 14 51 53
259 77 76 9 308 98 319 123 2 4 29 29 60 55 31 26 76 74 100 105 23 31 45 59
48 62 9 7 66 147 87 210 22 67 25 296 5 375 -7 28 -13 55 -14 60 0 6 -27 87
-60 180 -91 262 -102 355 -61 519 15 62 64 173 95 218 24 34 30 57 35 131 7
89 -16 127 -180 292 -138 139 -196 183 -219 169 -7 -5 -8 -3 -3 6 13 21 -110
8 -135 -15 -11 -10 -20 -15 -20 -11 0 3 -26 -8 -57 -26 -55 -31 -63 -33 -163
-33 -101 0 -133 7 -225 46 -124 52 -182 64 -247 49 -29 -7 -57 -16 -63 -20 -5
-4 -53 -22 -105 -41 -84 -30 -107 -34 -195 -34 -93 0 -104 2 -155 31 -79 44
-161 69 -196 60 -16 -4 -30 -7 -32 -7 -30 12 -327 -275 -371 -359 -36 -69 -35
-138 5 -215 70 -136 85 -171 104 -240 22 -80 25 -172 10 -273 -10 -72 -69
-265 -81 -270 -5 -2 -9 -12 -9 -22 0 -11 -8 -43 -19 -72 -35 -101 -46 -171
-45 -303 0 -86 6 -150 17 -190 22 -84 41 -135 49 -135 3 0 9 -13 13 -30 3 -16
29 -59 56 -96 27 -37 49 -73 49 -80 0 -19 -36 -27 -73 -15 -17 5 -52 13 -77
16 -25 4 -72 16 -104 27 -33 11 -81 21 -108 23 -72 5 -80 10 -117 67 -87 133
-192 408 -227 593 -24 126 -27 506 -5 625 67 371 269 751 528 991 302 279 675
444 1083 478 52 5 98 9 101 10 3 0 64 -4 135 -9z m1263 -147 c44 -33 52 -41
74 -73 21 -30 22 -83 2 -100 -12 -10 -21 -6 -50 24 -28 29 -33 40 -26 55 7 12
6 22 -1 29 -35 35 -42 -8 -13 -74 31 -71 32 -120 3 -151 -38 -40 -86 -25 -156
51 -44 47 -53 86 -32 127 14 25 19 24 59 -10 32 -28 34 -32 23 -57 -15 -33 1
-62 24 -43 21 17 17 49 -12 99 -28 49 -35 110 -14 135 20 24 78 18 119 -12z
m-2597 -128 c32 -27 58 -54 58 -60 0 -5 -16 -22 -35 -38 -30 -24 -37 -26 -55
-15 -16 10 -22 10 -36 -4 -13 -13 -14 -20 -4 -38 10 -19 8 -26 -21 -56 -18
-19 -38 -34 -43 -34 -13 0 -136 219 -136 242 0 8 27 41 60 72 l61 58 47 -38
c26 -21 73 -61 104 -89z m2271 92 c26 -21 27 -23 12 -44 -15 -22 -18 -22 -46
-8 -31 17 -35 26 -19 56 13 24 19 24 53 -4z m527 -182 c53 -27 119 -149 106
-193 -4 -10 -18 -30 -32 -43 -25 -23 -27 -23 -38 -5 -6 10 -22 32 -34 47 l-24
29 26 31 c28 33 27 56 -2 40 -9 -5 -42 -35 -72 -65 -40 -41 -51 -59 -43 -67 8
-8 17 -6 34 10 30 28 34 27 64 -16 32 -48 32 -57 -5 -83 -28 -20 -31 -20 -64
-5 -43 20 -104 97 -112 140 -7 41 10 74 73 143 53 56 74 62 123 37z m-3075
-28 c8 -12 15 -32 15 -44 0 -17 6 -23 22 -23 24 0 88 -56 88 -77 0 -17 -41
-73 -53 -73 -5 0 -27 16 -49 36 -29 26 -43 33 -51 25 -8 -8 1 -23 32 -55 l43
-44 -32 -46 -31 -47 -32 27 c-18 15 -65 54 -104 87 -40 33 -73 63 -73 67 0 11
56 92 96 138 55 64 98 74 129 29z m798 -211 c50 -60 144 -106 231 -113 129
-11 331 47 433 123 39 29 37 29 77 -1 120 -91 372 -147 498 -110 69 20 146 70
173 113 20 31 40 41 47 22 2 -5 90 -97 196 -204 137 -139 190 -199 186 -210
-3 -9 -10 -16 -15 -16 -4 0 -24 -25 -44 -55 -158 -237 -185 -477 -84 -740 91
-238 118 -348 119 -478 1 -354 -230 -614 -581 -657 -264 -31 -412 -78 -500
-157 l-40 -36 -32 35 c-62 68 -156 101 -407 147 -30 5 -82 13 -114 16 -204 23
-394 153 -481 330 -64 132 -75 176 -75 314 0 115 18 219 53 311 117 302 141
416 117 572 -21 137 -85 286 -160 370 -23 27 -40 52 -38 57 4 11 390 408 398
410 3 1 22 -19 43 -43z m2480 -41 c34 -58 34 -75 -3 -100 -30 -20 -38 -39 -21
-49 5 -3 20 3 34 14 14 11 32 20 39 20 21 0 65 -97 52 -117 -9 -14 -200 -131
-216 -133 -3 0 -18 23 -31 51 l-26 50 45 32 c41 29 58 57 33 57 -5 0 -27 -11
-47 -25 -20 -14 -40 -25 -43 -25 -4 0 -19 21 -34 46 -26 45 -27 47 -9 64 30
29 188 160 194 160 3 0 17 -20 33 -45z m-3472 -8 c43 -28 50 -77 20 -135 l-20
-39 45 -31 44 -32 -21 -42 c-36 -71 -35 -71 -95 -33 -30 19 -79 51 -109 70
-30 19 -55 40 -55 45 0 14 56 125 87 171 22 33 34 42 64 48 3 0 21 -9 40 -22z
m3618 -332 c32 -28 65 -103 75 -175 10 -69 -14 -107 -88 -136 -96 -39 -126
-31 -162 38 -22 42 -44 118 -44 150 0 15 10 39 23 53 23 26 133 94 154 95 6 0
25 -11 42 -25z m-3653 -187 c-3 -15 -12 -43 -20 -63 l-15 -35 -53 21 c-84 32
-172 72 -182 81 -10 8 17 100 36 125 7 9 39 -3 125 -45 109 -54 114 -58 109
-84z m-204 -105 c10 -9 18 -22 18 -30 0 -11 4 -11 20 -1 15 10 27 10 57 -1 61
-22 63 -25 46 -84 -9 -28 -16 -53 -18 -55 -1 -1 -24 5 -51 13 -47 14 -73 8
-60 -13 3 -5 27 -16 52 -23 26 -8 48 -19 51 -25 2 -6 -2 -35 -10 -65 -13 -52
-14 -54 -48 -53 -19 1 -56 6 -84 13 -27 6 -67 14 -88 18 -21 3 -40 10 -43 14
-8 14 35 218 56 267 17 37 23 42 51 42 18 0 41 -7 51 -17z m3987 -116 c29 -59
41 -216 19 -256 -25 -46 -179 -69 -213 -31 -22 24 -55 141 -55 195 0 52 29 98
71 114 19 7 43 17 54 22 11 4 38 7 60 6 37 -2 42 -5 64 -50z m-4087 -332 c-3
-46 -8 -63 -23 -74 -24 -17 -26 -64 -3 -59 9 2 29 37 49 87 18 46 38 88 44 94
19 19 73 12 93 -13 17 -21 19 -38 16 -135 -4 -131 -24 -188 -70 -193 l-28 -3
0 70 c0 64 2 71 20 71 22 0 44 34 36 56 -3 9 -15 14 -28 12 -17 -2 -28 -20
-52 -89 -35 -99 -49 -119 -82 -119 -33 0 -52 24 -60 77 -9 64 2 204 20 248 13
31 20 36 43 33 28 -3 28 -4 25 -63z m4143 -105 l0 -85 -95 -5 -95 -5 -3 -47
c-3 -45 -24 -70 -43 -51 -4 4 -12 58 -17 118 -10 127 -9 131 67 140 25 3 71 9
101 14 89 13 85 17 85 -79z m-205 -360 c20 -65 26 -70 86 -70 30 0 54 -4 54
-9 0 -5 -15 -20 -32 -32 -57 -38 -59 -45 -38 -103 24 -61 24 -56 4 -56 -9 0
-33 14 -54 30 -21 17 -41 30 -45 30 -4 0 -24 -13 -45 -30 -61 -48 -74 -36 -46
43 13 35 12 40 -7 59 -12 11 -32 27 -44 35 -36 24 -27 33 31 33 60 0 66 5 86
70 7 25 16 49 18 53 7 13 17 -4 32 -53z m-3789 23 c39 -98 34 -93 94 -93 30 0
55 -4 55 -9 0 -4 -18 -21 -39 -35 -49 -34 -52 -42 -35 -91 26 -75 16 -81 -47
-35 -45 32 -47 32 -109 -15 l-35 -26 -3 25 c-2 13 4 38 12 55 20 37 15 49 -34
85 -22 17 -40 33 -40 38 0 4 24 8 54 8 61 0 68 6 87 73 15 54 25 59 40 20z
m984 -733 c4 -6 10 -8 15 -5 4 3 13 -2 20 -11 34 -40 192 -90 410 -129 88 -16
139 -32 115 -36 -5 -1 6 -5 25 -10 23 -5 10 -6 -40 -3 -41 3 -94 5 -118 4 -23
0 -68 3 -100 9 -31 5 -95 15 -142 21 -247 33 -251 35 -230 121 11 46 30 63 45
39z m-248 -229 c12 -19 55 -19 80 1 16 13 53 0 53 -18 0 -8 -13 -17 -30 -21
l-31 -6 21 -21 c24 -26 27 -82 5 -113 -14 -20 -13 -21 15 -25 25 -4 30 -1 35
23 3 14 17 37 31 49 13 13 24 29 24 37 0 25 59 19 80 -8 16 -20 29 -20 78 4
18 8 26 7 39 -6 15 -15 14 -17 -10 -28 -28 -13 -34 -24 -17 -34 19 -12 11 -65
-15 -90 -18 -19 -35 -25 -72 -26 -46 -1 -47 -1 -16 -10 41 -12 66 -45 53 -70
-11 -19 -23 -24 -87 -34 -35 -6 -43 -4 -43 9 0 8 -9 20 -20 26 -11 6 -20 18
-20 27 0 12 -7 14 -32 9 -19 -4 -52 0 -82 10 -80 24 -97 35 -94 58 2 17 12 22
42 24 52 4 86 -14 86 -46 0 -20 3 -22 14 -13 22 18 25 59 6 76 -9 8 -35 15
-58 15 -47 0 -87 30 -79 58 11 41 11 47 -3 47 -8 0 -18 -15 -24 -32 -9 -35
-19 -39 -60 -23 -33 12 -33 37 1 72 31 32 58 35 109 11 35 -17 36 -19 31 -60
-5 -45 5 -56 23 -24 14 27 13 76 -2 89 -7 6 -30 13 -50 17 -42 8 -63 27 -54
50 8 22 59 19 73 -4z m2223 -86 c0 -7 -7 -15 -15 -19 -24 -9 -18 -26 9 -26 29
0 66 -42 66 -75 0 -38 -32 -67 -86 -77 -107 -20 -134 -21 -154 -3 -19 17 -20
17 -29 -8 -12 -31 -39 -47 -80 -47 -16 0 -41 -5 -55 -11 -52 -24 -105 15 -92
67 4 14 17 29 29 34 21 8 21 9 2 9 -21 1 -45 18 -45 33 0 18 67 40 126 41 52
2 66 -2 86 -20 24 -22 24 -22 41 -3 9 11 12 22 7 25 -16 10 -11 22 15 39 20
13 28 14 45 4 18 -11 24 -8 56 23 36 36 74 43 74 14z m-1452 -57 c7 -7 12 -18
12 -25 0 -16 -32 -17 -48 -1 -7 7 -12 8 -12 2 1 -13 68 -54 88 -54 63 0 88
-98 36 -139 -30 -24 -86 -28 -103 -7 -8 9 -26 12 -60 8 -30 -2 -57 1 -72 9
-13 7 -44 12 -69 11 -48 -3 -108 17 -130 43 -7 9 -13 30 -12 48 1 46 40 77 98
77 24 0 44 5 44 10 0 13 45 13 87 1 28 -8 33 -7 38 10 5 15 16 19 49 19 23 0
47 -5 54 -12z m907 -23 c0 -5 -13 -12 -30 -15 l-30 -6 32 -11 c29 -11 32 -15
27 -41 -4 -17 -1 -32 5 -36 6 -4 11 -18 11 -30 0 -60 -109 -108 -194 -85 -53
14 -66 25 -66 59 0 31 13 45 53 55 39 10 37 45 -3 45 -48 0 -35 17 19 24 37 5
53 12 66 32 14 22 22 25 63 22 26 -2 47 -7 47 -13z m712 -16 c6 -6 9 -17 7
-23 -2 -6 6 -16 18 -21 57 -25 14 -95 -58 -95 -29 0 -44 5 -48 16 -3 8 -10 13
-15 9 -16 -9 -22 12 -6 25 9 8 12 22 8 41 -5 26 -2 31 28 44 42 18 52 18 66 4z
m-1231 -21 c4 -7 -2 -18 -14 -26 -22 -14 -22 -14 11 -37 35 -24 57 -18 57 17
0 25 40 40 61 22 23 -20 45 -17 75 11 32 29 42 31 51 9 4 -11 -1 -22 -13 -31
-19 -14 -18 -15 4 -30 45 -31 14 -133 -40 -133 -11 0 -16 -4 -13 -10 3 -5 16
-10 29 -10 36 0 60 -23 53 -51 -4 -16 -22 -32 -55 -47 l-49 -23 -36 23 c-57
37 -58 66 -3 96 l31 17 -39 3 c-25 2 -47 11 -58 24 l-18 21 -23 -21 c-19 -17
-34 -21 -102 -21 -53 1 -88 6 -102 15 -49 31 -9 101 50 89 61 -12 68 -17 74
-46 9 -49 23 -43 23 9 0 43 -3 50 -25 60 -14 7 -42 12 -61 12 -43 0 -74 15
-74 37 0 13 8 15 53 10 35 -5 60 -2 77 7 32 18 67 19 76 4z"/>
<path d="M2422 4530 c-10 -41 -7 -50 15 -50 9 0 13 13 13 39 0 54 -15 60 -28
11z"/>
<path d="M1827 4564 c-3 -3 -4 -12 -1 -20 14 -46 15 -47 26 -36 6 6 8 22 4 36
-6 25 -16 32 -29 20z"/>
<path d="M1850 4426 c0 -27 25 -55 32 -34 8 22 -4 58 -18 58 -8 0 -14 -10 -14
-24z"/>
<path d="M950 4024 c0 -16 39 -74 50 -74 19 0 10 26 -20 55 -16 16 -30 25 -30
19z"/>
<path d="M716 3831 c-8 -12 31 -44 43 -36 8 4 8 12 1 26 -11 20 -35 25 -44 10z"/>
<path d="M2356 3369 c-8 -40 -8 -64 0 -56 10 10 22 87 14 87 -4 0 -10 -14 -14
-31z"/>
<path d="M2202 3340 c0 -25 3 -70 8 -100 l7 -55 0 70 c1 39 -3 84 -7 100 -7
27 -8 25 -8 -15z"/>
<path d="M2057 3293 c28 -86 52 -144 53 -128 0 19 -65 205 -72 205 -4 0 5 -35
19 -77z"/>
<path d="M2518 3338 c-23 -37 -79 -160 -75 -165 3 -2 12 13 22 34 10 21 31 64
47 96 29 58 32 76 6 35z"/>
<path d="M2339 3270 c-7 -35 -4 -48 7 -38 3 4 4 21 2 40 l-3 33 -6 -35z"/>
<path d="M1890 3276 c0 -7 68 -105 96 -139 34 -42 22 -19 -38 71 -43 64 -58
81 -58 68z"/>
<path d="M2623 3220 c-24 -26 -43 -50 -43 -54 0 -4 -12 -18 -27 -31 -16 -13
-25 -26 -22 -29 5 -5 54 47 137 147 34 39 -6 11 -45 -33z"/>
<path d="M1770 3162 c0 -12 19 -26 26 -19 2 2 -2 10 -11 17 -9 8 -15 8 -15 2z"/>
<path d="M2707 3097 c-49 -32 -86 -61 -84 -63 2 -3 40 19 83 48 104 70 99 66
94 71 -3 2 -45 -23 -93 -56z"/>
<path d="M2270 3117 c0 -40 -16 -101 -63 -234 -54 -151 -53 -254 1 -360 12
-23 22 -44 22 -46 0 -2 -44 -7 -97 -10 -148 -9 -286 -56 -313 -107 -15 -27
-12 -77 5 -110 10 -20 12 -31 4 -36 -6 -3 -8 -17 -5 -30 7 -28 4 -29 -57 -8
-54 18 -83 13 -72 -14 12 -32 10 -37 -12 -34 -35 5 -27 -13 12 -27 19 -7 47
-23 63 -35 29 -24 89 -56 105 -56 6 0 18 -6 26 -14 11 -10 44 -15 106 -16 137
-2 141 -2 127 12 -8 8 -15 8 -24 1 -34 -28 -196 75 -233 148 -21 39 -19 42 17
33 61 -13 98 -37 123 -80 22 -37 71 -84 89 -84 3 0 -9 21 -27 48 -30 42 -57
109 -57 141 0 18 19 13 54 -14 18 -14 47 -30 64 -36 30 -10 32 -14 32 -62 0
-35 7 -63 21 -86 24 -40 36 -35 20 10 -18 52 -14 134 9 174 31 56 52 85 59 85
4 0 19 -25 34 -55 36 -73 39 -176 6 -211 -19 -21 -21 -33 -19 -198 0 -121 -3
-176 -10 -176 -6 0 -41 18 -77 39 -164 99 -308 136 -505 129 l-128 -5 0 449 0
449 53 -3 c87 -4 227 2 227 10 0 4 -42 6 -92 5 -51 -1 -85 1 -75 3 9 3 17 10
17 16 0 12 -119 6 -139 -6 -6 -4 -11 -31 -11 -60 0 -54 -12 -75 -52 -89 -15
-5 -18 -18 -18 -66 0 -51 -3 -61 -20 -66 -20 -6 -20 -15 -20 -436 l0 -429 378
0 c308 -1 382 -3 402 -15 33 -19 128 -19 164 0 24 13 91 15 407 15 l379 0 0
430 0 430 -25 10 c-22 9 -25 15 -25 64 0 51 -2 57 -30 71 -27 14 -29 20 -32
77 -3 59 -4 62 -33 70 -48 13 -150 18 -165 8 -19 -12 -4 -17 76 -24 104 -9 94
42 94 -465 l0 -446 -168 -1 c-155 0 -173 -2 -252 -28 -94 -31 -164 -64 -227
-107 -23 -16 -46 -29 -52 -29 -7 0 -11 54 -11 164 0 154 2 167 25 218 14 29
25 65 25 80 0 21 8 31 33 43 19 9 49 31 67 50 19 19 38 35 42 35 4 0 8 -21 8
-47 0 -65 -33 -129 -87 -167 -31 -21 -40 -32 -29 -34 19 -4 98 68 131 118 22
35 147 112 160 98 11 -11 -32 -82 -77 -125 -24 -23 -63 -53 -88 -67 l-45 -26
65 1 c36 1 57 3 48 6 -10 2 -18 6 -18 7 0 1 35 39 79 84 78 81 110 102 157
102 31 0 30 -4 -7 -43 -17 -17 -43 -47 -57 -65 -14 -19 -42 -45 -61 -58 -34
-23 -34 -24 -11 -24 14 1 56 5 94 10 54 7 75 14 95 35 l26 26 -57 -26 c-32
-15 -67 -25 -78 -23 -18 3 -15 8 24 49 32 33 57 49 90 58 59 15 74 6 45 -25
-28 -30 -12 -31 31 -1 63 42 47 54 -65 47 -39 -2 -40 -2 -22 17 32 36 22 46
-40 40 -32 -3 -68 -8 -80 -12 -21 -7 -22 -5 -17 24 5 25 3 31 -11 31 -9 0 -15
3 -13 8 50 96 44 126 -32 164 -73 36 -174 59 -292 65 -78 5 -98 9 -100 22 -5
22 5 56 79 266 22 61 24 82 20 162 -6 96 -29 167 -69 210 -29 31 -38 29 -38
-10z m55 -52 c26 -57 35 -133 23 -202 -11 -58 -28 -86 -28 -45 0 13 -2 14 -9
4 -6 -10 -10 -9 -14 7 -8 32 -33 25 -47 -11 l-12 -33 -8 27 c-6 20 0 51 21
113 16 47 32 106 36 130 3 25 9 45 13 45 4 0 15 -16 25 -35z m-783 -912 l3
-398 40 5 c22 3 101 5 175 5 121 0 144 -3 220 -28 47 -15 92 -32 100 -37 26
-16 3 -22 -40 -10 -98 26 -309 12 -444 -31 -33 -11 -66 -19 -73 -19 -10 0 -13
86 -13 448 0 247 3 452 7 455 3 4 10 7 15 7 4 0 9 -179 10 -397z m1550 380 c5
-21 -1 -886 -7 -891 -1 -2 -34 5 -72 16 -169 49 -329 58 -470 27 -55 -12 -38
11 25 34 31 11 86 28 122 36 71 16 248 19 320 5 28 -5 47 -5 51 1 3 6 4 144 3
307 -3 301 3 482 16 482 4 0 10 -8 12 -17z m-877 -92 c3 -5 -8 -19 -24 -31
-61 -43 -161 -74 -277 -85 -59 -6 -72 -5 -77 8 -11 30 70 69 203 97 94 21 166
25 175 11z m310 -20 c101 -25 175 -56 175 -75 0 -36 -135 -30 -254 10 -79 26
-150 70 -140 86 9 14 114 4 219 -21z m-239 -22 c13 -22 150 -79 239 -100 69
-15 92 -25 91 -36 -1 -8 -9 -19 -17 -24 -9 -6 -10 -12 -4 -16 6 -5 2 -16 -11
-29 l-21 -20 -13 50 c-7 28 -17 54 -23 58 -6 3 -38 -23 -72 -58 -63 -65 -91
-78 -101 -46 -3 9 -12 28 -20 42 -9 14 -24 44 -35 67 -23 50 -37 61 -47 36
-12 -31 -87 -153 -93 -153 -4 0 -41 23 -83 50 -42 28 -80 50 -85 50 -13 0 -20
-23 -17 -58 1 -17 -2 -29 -6 -26 -4 3 -8 16 -8 29 0 13 -7 28 -16 33 -24 13
-9 30 39 43 113 32 195 66 250 104 25 18 43 19 53 4z m-480 -269 c29 -16 60
-40 70 -52 11 -13 37 -36 58 -52 22 -17 35 -31 29 -33 -16 -6 -132 45 -175 76
-32 23 -68 68 -68 85 0 14 39 4 86 -24z"/>
<path d="M1865 3076 c33 -30 62 -53 64 -50 5 4 -85 85 -108 97 -9 5 11 -16 44
-47z"/>
<path d="M1774 2969 c54 -28 100 -48 102 -46 5 5 -179 97 -192 96 -5 0 35 -23
90 -50z"/>
<path d="M2770 2972 c-41 -14 -70 -27 -65 -28 6 -2 48 9 95 26 47 16 76 29 65
28 -11 0 -54 -12 -95 -26z"/>
<path d="M1640 2856 c0 -2 7 -6 15 -10 8 -3 15 -1 15 4 0 6 -7 10 -15 10 -8 0
-15 -2 -15 -4z"/>
<path d="M1700 2840 c14 -4 36 -8 50 -8 22 0 22 1 -5 8 -16 4 -39 8 -50 8 -16
0 -15 -2 5 -8z"/>
<path d="M2720 2829 c-20 -6 -17 -7 18 -8 23 -1 42 1 42 3 0 9 -37 12 -60 5z"/>
<path d="M2843 2833 c15 -2 37 -2 50 0 12 2 0 4 -28 4 -27 0 -38 -2 -22 -4z"/>
<path d="M1800 2820 c34 -11 60 -11 35 0 -11 5 -29 8 -40 8 -16 0 -15 -2 5 -8z"/>
<path d="M2730 2700 c80 -20 190 -37 190 -29 0 5 -13 9 -29 9 -16 0 -40 4 -53
9 -14 5 -51 12 -84 15 -46 4 -51 3 -24 -4z"/>
<path d="M1830 2583 c-25 -9 -40 -18 -34 -20 11 -4 84 24 84 32 0 3 -1 5 -2 4
-2 0 -23 -8 -48 -16z"/>
<path d="M2680 2596 c0 -8 133 -66 138 -61 3 3 -25 18 -61 35 -67 30 -77 34
-77 26z"/>
<path d="M1730 2548 c-19 -6 -30 -12 -24 -15 7 -2 27 3 45 11 39 17 29 19 -21
4z"/>
<path d="M2844 2516 c11 -9 24 -16 30 -16 12 0 7 5 -24 19 -24 11 -24 11 -6
-3z"/>
<path d="M2620 2502 c0 -5 18 -23 40 -41 22 -17 40 -28 40 -24 0 11 -80 76
-80 65z"/>
<path d="M1860 2449 c-41 -28 -82 -54 -90 -59 -8 -5 -13 -11 -10 -14 3 -2 41
20 84 49 43 30 83 56 90 58 6 2 9 7 6 10 -3 3 -39 -17 -80 -44z"/>
<path d="M2710 2421 c0 -6 4 -13 10 -16 6 -3 7 1 4 9 -7 18 -14 21 -14 7z"/>
<path d="M2750 2385 c7 -8 17 -15 22 -15 6 0 5 7 -2 15 -7 8 -17 15 -22 15 -6
0 -5 -7 2 -15z"/>
<path d="M545 3561 c-7 -12 22 -41 41 -41 17 0 18 22 2 38 -14 14 -35 16 -43
3z"/>
<path d="M4170 3180 c-68 -35 -85 -49 -72 -62 11 -11 165 60 166 77 2 19 -40
13 -94 -15z"/>
<path d="M312 2893 c2 -10 13 -19 26 -21 17 -3 22 2 22 17 0 16 -6 21 -26 21
-19 0 -25 -5 -22 -17z"/>
<path d="M4265 2806 c-48 -16 -71 -29 -73 -41 -4 -19 0 -19 93 3 60 14 76 23
73 40 -4 23 -16 22 -93 -2z"/>
<path d="M1423 1028 c-40 -50 -34 -98 11 -98 28 0 42 15 51 53 12 45 -36 78
-62 45z"/>
<path d="M1337 923 c-3 -15 -5 -29 -4 -29 1 -1 20 1 42 6 33 6 37 8 20 15 -11
4 -27 14 -36 22 -15 12 -17 11 -22 -14z"/>
<path d="M1180 910 c0 -5 5 -10 10 -10 6 0 10 5 10 10 0 6 -4 10 -10 10 -5 0
-10 -4 -10 -10z"/>
<path d="M1375 840 c-3 -5 -1 -10 4 -10 6 0 11 5 11 10 0 6 -2 10 -4 10 -3 0
-8 -4 -11 -10z"/>
<path d="M1420 830 c0 -5 5 -10 10 -10 6 0 10 5 10 10 0 6 -4 10 -10 10 -5 0
-10 -4 -10 -10z"/>
<path d="M3282 1008 c-15 -15 -16 -63 -1 -89 12 -23 29 -16 29 12 0 14 7 19
24 19 14 0 28 -4 31 -10 10 -15 25 -12 25 6 0 9 -8 29 -17 45 -13 22 -25 29
-48 29 -17 0 -36 -5 -43 -12z"/>
<path d="M3073 968 c-29 -14 -29 -25 -2 -33 11 -4 29 -21 40 -38 17 -29 19
-30 19 -9 0 21 -25 93 -32 91 -2 0 -13 -5 -25 -11z"/>
<path d="M3033 894 c-3 -8 -1 -20 6 -27 8 -8 11 -4 11 16 0 30 -7 35 -17 11z"/>
<path d="M1758 988 c17 -8 26 -8 34 0 9 9 4 12 -22 11 -33 0 -34 -1 -12 -11z"/>
<path d="M1673 972 c-6 -4 -17 -20 -22 -35 -14 -37 1 -67 35 -67 19 0 28 8 40
35 22 54 -10 95 -53 67z"/>
<path d="M1940 945 c-9 -11 -9 -22 -1 -48 7 -19 9 -41 5 -50 -4 -11 -1 -17 9
-17 27 0 37 82 13 113 -12 15 -15 15 -26 2z"/>
<path d="M1803 900 c-3 -44 0 -50 17 -50 21 0 50 35 50 62 0 9 -9 22 -19 28
-37 19 -46 12 -48 -40z"/>
<path d="M2758 953 c7 -3 16 -2 19 1 4 3 -2 6 -13 5 -11 0 -14 -3 -6 -6z"/>
<path d="M2718 908 c9 -9 15 -9 24 0 9 9 7 12 -12 12 -19 0 -21 -3 -12 -12z"/>
<path d="M2713 833 c-19 -7 -16 -21 6 -28 20 -6 71 13 71 27 0 9 -57 10 -77 1z"/>
<path d="M3537 923 c-14 -13 -6 -33 13 -33 11 0 20 4 20 9 0 13 -26 32 -33 24z"/>
<path d="M2446 888 c-19 -27 -20 -47 -1 -71 19 -26 57 -18 73 16 27 56 -38
105 -72 55z"/>
<path d="M2190 830 c0 -11 4 -20 9 -20 11 0 22 26 14 34 -12 12 -23 5 -23 -14z"/>
<path d="M2476 724 c-3 -9 -4 -19 -1 -24 6 -9 66 2 66 13 -1 4 -1 12 -1 17 0
17 -57 11 -64 -6z"/>
<path d="M1167 123 c645 -2 1701 -2 2345 0 645 1 118 2 -1172 2 -1290 0 -1817
-1 -1173 -2z"/>
</g>
</svg>
